<svg xmlns="http://www.w3.org/2000/svg" viewBox="2.5 2.5 27 27" role="img" aria-label="sol logo">
  <title>sol</title>
  <!-- Sun rays: 10 floating wedges with curved inner arc matching the ring -->
  <path fill="#F5C740" d="M16.0 2.5 L18.6 7.3 A9.1 9.1 0 0 0 13.4 7.3 Z M23.9 5.1 L23.2 10.5 A9.1 9.1 0 0 0 19.0 7.4 Z M28.8 11.8 L25.1 15.8 A9.1 9.1 0 0 0 23.5 10.9 Z M28.8 20.2 L23.5 21.1 A9.1 9.1 0 0 0 25.1 16.2 Z M23.9 26.9 L19.0 24.6 A9.1 9.1 0 0 0 23.2 21.5 Z M16.0 29.5 L13.4 24.7 A9.1 9.1 0 0 0 18.6 24.7 Z M8.1 26.9 L8.8 21.5 A9.1 9.1 0 0 0 13.0 24.6 Z M3.2 20.2 L6.9 16.2 A9.1 9.1 0 0 0 8.5 21.1 Z M3.2 11.8 L8.5 10.9 A9.1 9.1 0 0 0 6.9 15.8 Z M8.1 5.1 L13.0 7.4 A9.1 9.1 0 0 0 8.8 10.5 Z"/>
  <!-- Sun ring: open annulus -->
  <circle cx="16" cy="16" r="8.0" fill="none" stroke="#E8923A" stroke-width="1.2"/>
  <!-- sol — Comfortaa Bold, scale=0.01 SVG/fu, letter-spacing=-100fu, 12.54 wide -->
  <path fill="#E8923A" fill-rule="evenodd" d="M12.079 18.795C13.489 18.795 14.229 18.065 14.229 17.155C14.229 16.365 13.729 15.835 12.229 15.535C11.149 15.315 10.939 15.095 10.939 14.725C10.939 14.345 11.399 14.135 11.989 14.135C12.499 14.135 12.859 14.235 13.199 14.555C13.399 14.745 13.729 14.815 13.949 14.665C14.159 14.505 14.169 14.255 13.989 14.035C13.589 13.545 12.889 13.245 12.009 13.245C10.989 13.245 9.959 13.735 9.959 14.755C9.959 15.525 10.529 16.075 11.879 16.335C12.919 16.525 13.249 16.815 13.239 17.215C13.229 17.615 12.809 17.895 12.039 17.895C11.429 17.895 10.889 17.625 10.659 17.375C10.469 17.175 10.189 17.125 9.929 17.335C9.699 17.515 9.659 17.825 9.859 18.035C10.299 18.475 11.149 18.795 12.079 18.795Z M16.999 18.795C18.609 18.795 19.749 17.645 19.749 16.025C19.739 14.395 18.599 13.245 16.999 13.245C15.379 13.245 14.239 14.395 14.239 16.025C14.239 17.645 15.379 18.795 16.999 18.795ZM16.999 17.895C15.959 17.895 15.219 17.125 15.219 16.025C15.219 14.925 15.959 14.145 16.999 14.145C18.039 14.145 18.769 14.925 18.769 16.025C18.769 17.125 18.039 17.895 16.999 17.895Z M21.569 18.755H21.589C21.989 18.755 22.269 18.545 22.269 18.255C22.269 17.965 22.079 17.755 21.819 17.755H21.569C21.279 17.755 21.069 17.405 21.069 16.905V11.445C21.069 11.155 20.859 10.945 20.569 10.945C20.279 10.945 20.069 11.155 20.069 11.445V16.905C20.069 17.985 20.689 18.755 21.569 18.755Z"/>
</svg>
